<?xml version="1.0" encoding="UTF-8"?>
<svg version="1.1" xmlns="http://www.w3.org/2000/svg" width="441" height="441">
<path d="M0 0 C1.60371964 0.00031723 1.60371964 0.00031723 3.23983765 0.00064087 C18.76695203 0.03135707 33.49140339 0.6398863 48.625 4.375 C50.21046016 4.71965115 51.79639693 5.06211742 53.3828125 5.40234375 C86.04920751 12.81758149 116.73512745 29.68877269 142.53125 50.7109375 C144.72455522 52.50163798 144.72455522 52.50163798 147.625 54.375 C147.625 55.035 147.625 55.695 147.625 56.375 C148.21724365 56.64344727 148.8094873 56.91189453 149.41967773 57.18847656 C153.10062657 59.16892728 155.76334118 62.17612894 158.6875 65.125 C159.35072266 65.79168701 160.01394531 66.45837402 160.69726562 67.14526367 C166.90515948 73.48859976 172.37211886 80.23177855 177.625 87.375 C178.26824219 88.24640625 178.91148437 89.1178125 179.57421875 90.015625 C214.08755003 138.10161465 228.23106753 197.34950037 219.234375 255.91796875 C216.20902673 273.98602094 211.006983 291.60836404 203.625 308.375 C203.15586182 309.45467041 203.15586182 309.45467041 202.67724609 310.55615234 C194.91251867 328.24560635 184.91659056 344.46896365 172.625 359.375 C172.16657715 359.93493652 171.7081543 360.49487305 171.23583984 361.07177734 C165.77805573 367.70053781 160.10079777 374.08129515 154.0625 380.1875 C153.58127686 380.67798828 153.10005371 381.16847656 152.60424805 381.67382812 C112.44232007 421.49859424 54.16622192 441.64928569 -1.67236328 441.6237793 C-53.65982532 440.9963911 -108.61961583 421.83739156 -146.375 385.375 C-147.76315311 384.15785125 -149.15848297 382.94881454 -150.5625 381.75 C-188.63084855 348.57615341 -215.42188379 295.38096627 -219.65658569 245.02670288 C-219.99602937 238.33141177 -220.00436498 231.64558221 -219.91699219 224.94360352 C-219.8747926 221.54580079 -219.87598573 218.14997713 -219.8828125 214.75195312 C-219.83408095 197.5924727 -218.42056782 180.85457044 -213.625 164.3125 C-213.36750977 163.40314697 -213.11001953 162.49379395 -212.84472656 161.55688477 C-206.22901716 138.72951051 -196.71645163 117.08276982 -183.375 97.375 C-182.97313477 96.7763916 -182.57126953 96.1777832 -182.15722656 95.56103516 C-167.8313833 74.38395259 -150.20245913 56.18893178 -129.375 41.375 C-128.74094238 40.92286133 -128.10688477 40.47072266 -127.45361328 40.00488281 C-100.33330868 20.86869314 -69.94405687 8.52550015 -37.375 2.375 C-36.39644043 2.18663574 -35.41788086 1.99827148 -34.40966797 1.80419922 C-22.9954819 -0.11734045 -11.54497431 -0.02097855 0 0 Z " fill="#3C63E3" transform="translate(219.375,-0.375)"/>
<path d="M0 0 C1.6080249 0.01015137 1.6080249 0.01015137 3.24853516 0.02050781 C19.96901918 0.23934233 31.65934577 4.07548552 45.4375 13.5 C57.17709851 21.3333267 69.30215806 29.25485623 83.3125 32.25 C84.14523438 32.43304688 84.97796875 32.61609375 85.8359375 32.8046875 C104.22266729 35.15984165 122.58518541 33.02981158 140.328125 28.15234375 C155.97503155 24.2639396 178.08059112 23.30104818 192.4921875 31.48828125 C195.2994973 33.65756609 196.99231486 36.00160232 198.3125 39.25 C198.56697559 41.65360546 198.56697559 41.65360546 198.57319641 44.37797546 C198.58028122 45.41382278 198.58736603 46.4496701 198.59466553 47.51690674 C198.59218811 48.64787781 198.58971069 49.77884888 198.5871582 50.9440918 C198.59226913 52.13966202 198.59738007 53.33523224 198.60264587 54.56703186 C198.61416626 57.84420157 198.61661469 61.12121447 198.61408257 64.39839911 C198.6130117 67.13907795 198.61789965 69.87973355 198.622688 72.6204074 C198.63378332 79.0922522 198.63422164 85.56403897 198.62817383 92.03588867 C198.62214466 98.69668028 198.63441793 105.35726009 198.6557439 112.01801556 C198.67340832 117.74729016 198.67935332 123.47649765 198.67610615 129.20579845 C198.67429951 132.62272287 198.67686635 136.03949649 198.69082069 139.4563961 C198.70319341 143.27407356 198.69638687 147.09126552 198.68481445 150.90893555 C198.69245819 152.02978546 198.70010193 153.15063538 198.70797729 154.30545044 C198.6543896 162.32679396 197.58923299 168.80237576 193.125 175.5625 C186.20010024 182.17962644 179.54709769 182.85035906 170.21875 182.78125 C169.07265259 182.7850769 167.92655518 182.78890381 166.74572754 182.79284668 C164.33194089 182.79555852 161.91812449 182.78824863 159.50439453 182.77148438 C155.82387352 182.75006619 152.14530453 182.77131283 148.46484375 182.796875 C146.11197489 182.7942316 143.75910723 182.78910636 141.40625 182.78125 C140.31332642 182.78934692 139.22040283 182.79744385 138.09436035 182.80578613 C131.01891325 182.71956402 125.17034238 181.8297196 119.82922363 176.87365723 C115.1232469 171.56781864 112.94510635 166.55630221 112.89599609 159.50463867 C112.88741074 158.85807312 112.87882538 158.21150757 112.86997986 157.54534912 C112.84501145 155.41944284 112.84054333 153.29400813 112.8359375 151.16796875 C112.8215967 149.67025881 112.80583426 148.17256188 112.78872681 146.67488098 C112.74693148 142.73099392 112.72192581 138.78718721 112.70123291 134.84313965 C112.66543275 128.57190582 112.60333025 122.300874 112.54274368 116.02984047 C112.52407922 113.86732089 112.5120393 111.70485372 112.50131226 109.5422821 C112.4551375 102.38469122 112.27984987 95.24341501 111.90478516 88.0949707 C111.85577592 87.05069932 111.85577592 87.05069932 111.8057766 85.98533154 C111.25275443 76.51492486 108.01533822 68.06144903 101.3125 61.25 C92.67805396 54.12286027 83.00354853 52.92184746 72.12109375 52.8515625 C68.91114371 53.18737266 66.57866711 53.7351245 63.57446289 54.77490234 C62.773517 55.04974457 61.97257111 55.32458679 61.14735413 55.60775757 C60.54185226 55.81969757 59.9363504 56.03163757 59.3125 56.25 C59.30118687 57.0829564 59.30118687 57.0829564 59.2896452 57.93274021 C59.1048814 71.46304073 58.9039181 84.99301781 58.68563366 98.52282047 C58.58055885 105.06582995 58.48082236 111.60882979 58.39331055 118.15209961 C58.30864748 124.46764869 58.20992947 130.78283644 58.10149574 137.09802055 C58.06260686 139.50644831 58.02876828 141.91496313 58.00008202 144.32353401 C57.95901155 147.69921362 57.89993254 151.07413628 57.83666992 154.44946289 C57.82875427 155.44352646 57.82083862 156.43759003 57.81268311 157.46177673 C57.63979887 165.10881897 56.15797827 171.0199026 50.86488342 176.90905762 C44.48837262 182.41706128 36.90126349 182.84544094 28.84765625 182.78125 C27.77430527 182.7850769 26.70095428 182.78890381 25.59507751 182.79284668 C23.33689429 182.79555503 21.07867911 182.78826979 18.82055664 182.77148438 C15.38811371 182.75008177 11.95776877 182.77131343 8.52539062 182.796875 C6.32030793 182.79423112 4.11522654 182.78910491 1.91015625 182.78125 C0.89631363 182.78934692 -0.11752899 182.79744385 -1.16209412 182.80578613 C-8.55874294 182.70976211 -16.25549276 181.74690509 -21.66368103 176.2364502 C-25.94880772 170.8704482 -26.8098742 166.79096967 -26.82794189 159.96292114 C-26.83365204 158.67031372 -26.83936218 157.3777063 -26.84524536 156.04592896 C-26.84649063 154.61541758 -26.84761575 153.18490609 -26.84863281 151.75439453 C-26.85326264 150.24631631 -26.85828753 148.73823926 -26.86367798 147.23016357 C-26.8767866 143.13508729 -26.88324373 139.04002739 -26.88768864 134.94493341 C-26.89062136 132.38598441 -26.89472652 129.82703987 -26.89919281 127.26809311 C-26.91286263 119.26012287 -26.92253226 111.25216285 -26.9263947 103.24418175 C-26.93087672 94.00279466 -26.9484334 84.76155539 -26.9773953 75.52021325 C-26.99901199 68.37444732 -27.00909895 61.228723 -27.01043582 54.08292472 C-27.0114837 49.81598912 -27.01738807 45.54919257 -27.03525543 41.28229141 C-27.05173632 37.26855196 -27.05389162 33.2550561 -27.04511642 29.24129486 C-27.0443461 27.7699277 -27.04868819 26.29854744 -27.05857468 24.82721329 C-27.07129927 22.81519745 -27.06362381 20.8030837 -27.05499268 18.79104614 C-27.05645924 17.66612322 -27.0579258 16.54120029 -27.0594368 15.3821888 C-26.49653526 10.64182999 -24.79671042 7.35921042 -21.4375 4 C-14.69862249 -0.2883766 -7.75442699 -0.06978383 0 0 Z " fill="#FEFEFE" transform="translate(134.6875,176.75)"/>
<path d="M0 0 C10.12887776 6.21584122 16.74751589 15.53942268 20.47265625 26.71484375 C21.67992694 39.72127517 21.44739285 51.63681497 13.453125 62.4453125 C5.60543372 71.74984314 -4.22043654 78.57208411 -16.57958984 79.94238281 C-25.18838298 80.55605603 -33.02276571 80.40520503 -40.52734375 75.71484375 C-41.19765625 75.35261719 -41.86796875 74.99039063 -42.55859375 74.6171875 C-51.67788407 69.44374395 -57.61393577 62.39218595 -61.52734375 52.71484375 C-61.8934375 51.82667969 -62.25953125 50.93851563 -62.63671875 50.0234375 C-63.82582932 45.60599603 -63.89553965 41.45769109 -63.90234375 36.90234375 C-63.93908203 35.62520508 -63.93908203 35.62520508 -63.9765625 34.32226562 C-64.02548391 23.61663053 -58.73173417 14.16062519 -51.421875 6.51171875 C-36.79956204 -7.07872703 -17.89374476 -9.09898304 0 0 Z " fill="#FDFEFE" transform="translate(171.52734375,86.28515625)"/>
<path d="M0 0 C10.22720345 5.76919169 17.97191155 14.09195781 21.41796875 25.48046875 C24.39019558 38.43403167 22.85954485 50.69353572 15.85546875 62.0078125 C8.85382237 72.02091968 -0.91418578 77.85628063 -12.72265625 80.7109375 C-25.40858095 81.96240463 -35.17070426 80.02169412 -45.59765625 72.3359375 C-51.94414961 67.02232733 -56.56190952 61.39729887 -59.72265625 53.7109375 C-60.08101562 52.84082031 -60.439375 51.97070312 -60.80859375 51.07421875 C-63.35890799 41.6903702 -63.45276141 28.58554182 -59.046875 19.8046875 C-45.79823275 -1.14301824 -23.81461327 -11.27521145 0 0 Z " fill="#FDFEFE" transform="translate(308.72265625,107.2890625)"/>
</svg>
